<?xml version="1.0" ?><svg height="48px" version="1.1" viewBox="0 0 48 48" width="48px" xmlns="http://www.w3.org/2000/svg" xmlns:xlink="http://www.w3.org/1999/xlink"><title/><desc/><g fill="none" fill-rule="evenodd" id="Page-1" stroke="none" stroke-width="1"><g id="Artboard-Copy" transform="translate(-107.000000, -369.000000)"><path d="M117.1885,379 C115.8835,379 114.7625,379.768 114.2695,380.871 C114.0955,381.258 114.0005,381.686 114.0005,382.133 L131.0005,392.93 L147.9995,382.133 C147.9995,381.68 147.9035,381.246 147.7255,380.857 C147.2305,379.764 146.1115,379 144.8135,379 L117.1885,379 Z M114.0005,384.92 L114.0005,399.082 L125.1485,392 L114.0005,384.92 Z M114.2695,403.127 C114.7625,404.23 115.8835,405 117.1885,405 L144.8135,405 C146.1115,405 147.2305,404.238 147.7255,403.143 C147.9035,402.752 147.9995,402.32 147.9995,401.867 L134.6535,393.393 L131.0005,395.715 L127.3455,393.393 L114.0005,401.867 C114.0005,402.314 114.0955,402.744 114.2695,403.127 L114.2695,403.127 Z M147.9995,399.082 L147.9995,384.92 L136.8505,392 L147.9995,399.082 Z" fill="#000000" id="mail2"/><g id="slices" transform="translate(47.000000, 9.000000)"/></g></g></svg>